<svg xmlns="http://www.w3.org/2000/svg" width="1000" height="760" viewBox="0 0 1000 760" font-family="Helvetica, Arial, sans-serif" font-size="13" fill="#222">
  <title>pi-DDR assembled, example room layout</title>
  <!--
    Drawn in a parallel projection, seen from behind the players. Units are inches:
    x to the players' right, r toward the rear of the stage, z up, with the origin
    at the stage's front-left corner on the floor. A point (x, r, z) lands on the
    page at P = (305.2 + 4.872x + 1.125r, 490.7 - 0.596x + 2.582r - 4.24z).

    Each <g class="f"> is one flat face, with the shapes inside it in inches:
      top face at height z, local (x, r):    matrix(4.872 -0.596 1.125 2.582  P(0, 0, z))
      face toward the viewer at r, (x, -z):  matrix(4.872 -0.596 0 4.24  P(0, r, 0))
      left face at x, local (r, -z):         matrix(1.125 2.582 0 4.24  P(x, 0, 0))
    Faces are drawn back to front. Class f keeps outlines 1 px wide.
  -->
  <style>.f * { vector-effect: non-scaling-stroke; }</style>
  <defs>
    <linearGradient id="screen" x1="0" y1="0" x2="0" y2="1">
      <stop offset="0" stop-color="#27335a"/>
      <stop offset="1" stop-color="#11172a"/>
    </linearGradient>
    <!-- an arrow as the game draws it, pointing up, 2.6 in across -->
    <path id="note" d="M0,-1.3 L1.3,0 L0.6,0 L0.6,1.3 L-0.6,1.3 L-0.6,0 L-1.3,0 z" stroke-width="0.8" stroke-linejoin="round" vector-effect="non-scaling-stroke"/>
    <!-- the reference mat, 32-3/4 x 36-5/8 in, front (TV side) at the top -->
    <g id="mat">
      <rect width="32.75" height="36.625" rx="0.75" fill="#5b6576" stroke="#3e4654" vector-effect="non-scaling-stroke"/>
      <rect x="11.5" y="1" width="4.25" height="1.75" rx="0.4" fill="#8d97a8" stroke="none"/>
      <rect x="17" y="1" width="4.25" height="1.75" rx="0.4" fill="#8d97a8" stroke="none"/>
      <g stroke="#7a8597">
        <line x1="0" y1="3.875" x2="32.75" y2="3.875" vector-effect="non-scaling-stroke"/>
        <line x1="0" y1="14.75" x2="32.75" y2="14.75" vector-effect="non-scaling-stroke"/>
        <line x1="0" y1="25.625" x2="32.75" y2="25.625" vector-effect="non-scaling-stroke"/>
        <line x1="10.875" y1="3.875" x2="10.875" y2="36.625" vector-effect="non-scaling-stroke"/>
        <line x1="21.875" y1="3.875" x2="21.875" y2="36.625" vector-effect="non-scaling-stroke"/>
      </g>
      <g fill="#f2f4f7" stroke="none">
        <path d="M16.375,6.25 L19.5,11.875 L13.25,11.875 z"/>
        <path d="M16.375,34.25 L19.5,28.625 L13.25,28.625 z"/>
        <path d="M2.5,20.125 L8.125,17 L8.125,23.25 z"/>
        <path d="M30.25,20.125 L24.625,17 L24.625,23.25 z"/>
      </g>
    </g>
  </defs>

  <rect width="1000" height="760" fill="#fff"/>

  <!-- subwoofer -->
  <g class="f" transform="matrix(1.125 2.582 0 4.24 792.385 431.097)" stroke="#111"><rect x="-62" y="-14" width="13" height="14" fill="#2e2e2e"/></g>
  <g class="f" transform="matrix(4.872 -0.596 0 4.24 250.087 364.197)" stroke="#111">
    <rect x="100" y="-14" width="13" height="14" fill="#3a3a3a"/>
    <circle cx="106.5" cy="-7" r="4.6" fill="#1d1d1d" stroke="#9a9a9a"/><circle cx="106.5" cy="-7" r="1.472" fill="#4a4a4a" stroke="none"/>
  </g>
  <g class="f" transform="matrix(4.872 -0.596 1.125 2.582 305.2 431.337)" stroke="#111"><rect x="100" y="-62" width="13" height="13" fill="#4d4d4d"/></g>

  <!-- front right speaker -->
  <g class="f" transform="matrix(1.125 2.582 0 4.24 733.923 438.249)" stroke="#111"><rect x="-60" y="-38" width="10" height="38" fill="#2e2e2e"/></g>
  <g class="f" transform="matrix(4.872 -0.596 0 4.24 248.962 361.616)" stroke="#111">
    <rect x="88" y="-38" width="8" height="38" fill="#3a3a3a"/>
    <circle cx="92" cy="-34.5" r="0.8" fill="#1d1d1d" stroke="#9a9a9a"/><circle cx="92" cy="-34.5" r="0.256" fill="#4a4a4a" stroke="none"/>
    <circle cx="92" cy="-30" r="2.5" fill="#1d1d1d" stroke="#9a9a9a"/><circle cx="92" cy="-30" r="0.8" fill="#4a4a4a" stroke="none"/>
    <circle cx="92" cy="-23.5" r="2.5" fill="#1d1d1d" stroke="#9a9a9a"/><circle cx="92" cy="-23.5" r="0.8" fill="#4a4a4a" stroke="none"/>
    <ellipse cx="92" cy="-6" rx="1.4" ry="0.8" fill="#161616" stroke="none"/>
  </g>
  <g class="f" transform="matrix(4.872 -0.596 1.125 2.582 305.2 329.571)" stroke="#111"><rect x="88" y="-60" width="8" height="10" fill="#4d4d4d"/></g>

  <!-- TV console: left side and top -->
  <g class="f" transform="matrix(1.125 2.582 0 4.24 349.047 485.336)" stroke="#8c8170"><rect x="-64" y="-18" width="16" height="18" fill="#d3c9b8"/></g>
  <g class="f" transform="matrix(4.872 -0.596 1.125 2.582 305.2 414.376)" stroke="#8c8170"><rect x="9" y="-64" width="60" height="16" fill="#efe9df"/></g>

  <!-- TV stand -->
  <g class="f" transform="matrix(1.125 2.582 0 4.24 465.971 471.031)" stroke="#111"><rect x="-62" y="-18.6" width="6" height="0.6" fill="#232529"/></g>
  <g class="f" transform="matrix(4.872 -0.596 0 4.24 242.214 346.126)" stroke="#111"><rect x="33" y="-18.6" width="12" height="0.6" fill="#2a2c30"/></g>
  <g class="f" transform="matrix(4.872 -0.596 1.125 2.582 305.2 411.832)" stroke="#111"><rect x="33" y="-62" width="12" height="6" fill="#3a3c40"/></g>
  <g class="f" transform="matrix(1.125 2.582 0 4.24 487.894 468.349)" stroke="#111"><rect x="-60" y="-26" width="1.5" height="7.4" fill="#232529"/></g>
  <g class="f" transform="matrix(4.872 -0.596 0 4.24 239.402 339.671)" stroke="#111"><rect x="37.5" y="-26" width="3" height="7.4" fill="#2a2c30"/></g>
  <g class="f" transform="matrix(4.872 -0.596 1.125 2.582 305.2 380.454)" stroke="#111"><rect x="37.5" y="-60" width="3" height="1.5" fill="#3a3c40"/></g>

  <!-- TV, 55 in class -->
  <g class="f" transform="matrix(1.125 2.582 0 4.24 377.06 481.909)" stroke="#0c0c0c"><rect x="-60" y="-53.8" width="2" height="28.3" fill="#26282c"/></g>
  <g class="f" transform="matrix(4.872 -0.596 0 4.24 239.964 340.962)" stroke="#0c0c0c">
    <rect x="14.75" y="-53.8" width="48.5" height="28.3" fill="#1c1e22"/>
    <rect x="15.15" y="-53.4" width="48.1" height="27.5" fill="url(#screen)" stroke="none"/>
    <rect x="21" y="-52.8" width="12" height="0.7" fill="#2c3552" stroke="none"/>
    <rect x="21" y="-52.8" width="8.6" height="0.7" fill="#7ee07e" stroke="none"/>
    <use href="#note" transform="translate(22.8 -50) rotate(-90)" fill="#34405f" stroke="#c9d1e0"/>
    <use href="#note" transform="translate(25.6 -50) rotate(180)" fill="#34405f" stroke="#c9d1e0"/>
    <use href="#note" transform="translate(28.4 -50) rotate(0)" fill="#34405f" stroke="#c9d1e0"/>
    <use href="#note" transform="translate(31.2 -50) rotate(90)" fill="#34405f" stroke="#c9d1e0"/>
    <use href="#note" transform="translate(22.8 -45.5) rotate(-90)" fill="#ff5a6a" stroke="#fff"/>
    <use href="#note" transform="translate(25.6 -41.6) rotate(180)" fill="#4aa8ff" stroke="#fff"/>
    <use href="#note" transform="translate(22.8 -37.6) rotate(-90)" fill="#ff5a6a" stroke="#fff"/>
    <use href="#note" transform="translate(31.2 -37.6) rotate(90)" fill="#ff5a6a" stroke="#fff"/>
    <use href="#note" transform="translate(28.4 -33.7) rotate(0)" fill="#ffd24a" stroke="#fff"/>
    <use href="#note" transform="translate(25.6 -29.8) rotate(180)" fill="#ff5a6a" stroke="#fff"/>
    <rect x="45" y="-52.8" width="12" height="0.7" fill="#2c3552" stroke="none"/>
    <rect x="45" y="-52.8" width="10.2" height="0.7" fill="#7ee07e" stroke="none"/>
    <use href="#note" transform="translate(46.8 -50) rotate(-90)" fill="#34405f" stroke="#c9d1e0"/>
    <use href="#note" transform="translate(49.6 -50) rotate(180)" fill="#34405f" stroke="#c9d1e0"/>
    <use href="#note" transform="translate(52.4 -50) rotate(0)" fill="#34405f" stroke="#c9d1e0"/>
    <use href="#note" transform="translate(55.2 -50) rotate(90)" fill="#34405f" stroke="#c9d1e0"/>
    <use href="#note" transform="translate(55.2 -45.5) rotate(90)" fill="#ff5a6a" stroke="#fff"/>
    <use href="#note" transform="translate(52.4 -41.6) rotate(0)" fill="#4aa8ff" stroke="#fff"/>
    <use href="#note" transform="translate(49.6 -37.6) rotate(180)" fill="#ff5a6a" stroke="#fff"/>
    <use href="#note" transform="translate(52.4 -37.6) rotate(0)" fill="#ff5a6a" stroke="#fff"/>
    <use href="#note" transform="translate(46.8 -33.7) rotate(-90)" fill="#4aa8ff" stroke="#fff"/>
    <use href="#note" transform="translate(55.2 -29.8) rotate(90)" fill="#ff5a6a" stroke="#fff"/>
  </g>
  <g class="f" transform="matrix(4.872 -0.596 1.125 2.582 305.2 262.575)" stroke="#0c0c0c"><rect x="14.75" y="-60" width="48.5" height="2" fill="#2e3035"/></g>

  <!-- console: open shelf with the receiver and the Pi -->
  <g class="f" transform="matrix(4.872 -0.596 0 4.24 251.212 366.779)" stroke="none"><rect x="11" y="-15.5" width="56" height="13" fill="#3d3934"/></g>

  <!-- AV receiver -->
  <g class="f" transform="matrix(1.125 2.582 0 4.24 426.996 475.799)" stroke="#0e0e0e"><rect x="-62" y="-9" width="13" height="6.5" fill="#24262a"/></g>
  <g class="f" transform="matrix(4.872 -0.596 0 4.24 250.087 364.197)" stroke="#0e0e0e">
    <rect x="25" y="-9" width="17" height="6.5" fill="#2b2e33"/>
    <rect x="27" y="-7.9" width="8" height="1.6" fill="#9fd3ff" stroke="none"/>
    <circle cx="39.2" cy="-5.9" r="1.7" fill="#70747b" stroke="#1c1e21"/>
    <circle cx="28.2" cy="-4.3" r="0.7" fill="#70747b" stroke="none"/>
    <rect x="30.5" y="-4.6" width="1.2" height="0.5" fill="#70747b" stroke="none"/>
    <rect x="32.3" y="-4.6" width="1.2" height="0.5" fill="#70747b" stroke="none"/>
    <rect x="34.1" y="-4.6" width="1.2" height="0.5" fill="#70747b" stroke="none"/>
  </g>
  <g class="f" transform="matrix(4.872 -0.596 1.125 2.582 305.2 452.538)" stroke="#0e0e0e"><rect x="25" y="-62" width="17" height="13" fill="#3c3f45"/></g>
  <polyline points="491.355,320.392 472.392,321.625 453.205,322.341" fill="none" stroke="#111" stroke-width="1.6" stroke-linejoin="round" stroke-linecap="round"/>

  <!-- Raspberry Pi 4 in its case -->
  <g class="f" transform="matrix(1.125 2.582 0 4.24 547.818 461.018)" stroke="#5e0c22"><rect x="-51.8" y="-3.9" width="2.8" height="1.4" fill="#a8163f"/></g>
  <g class="f" transform="matrix(4.872 -0.596 0 4.24 250.087 364.197)" stroke="#5e0c22">
    <rect x="49.8" y="-3.9" width="4" height="1.4" fill="#c51a4a"/>
    <rect x="49.8" y="-3.9" width="4" height="0.45" fill="#f4f4f4"/>
    <rect x="51" y="-3.25" width="0.7" height="0.45" fill="#cfd4da" stroke="none"/>
    <rect x="52.1" y="-3.25" width="0.7" height="0.45" fill="#cfd4da" stroke="none"/>
  </g>
  <g class="f" transform="matrix(4.872 -0.596 1.125 2.582 305.2 474.163)" stroke="#5e0c22"><rect x="49.8" y="-51.8" width="4" height="2.8" fill="#f4f4f4"/></g>

  <!-- console: front, with the open shelf -->
  <g class="f" transform="matrix(4.872 -0.596 0 4.24 251.212 366.779)" stroke="#8c8170"><path d="M9,-18 H69 V0 H9 z M11,-15.5 V-2.5 H67 V-15.5 z" fill="#e3dbcd" fill-rule="evenodd"/></g>

  <!-- centre speaker -->
  <g class="f" transform="matrix(1.125 2.582 0 4.24 446.484 473.415)" stroke="#111"><rect x="-54.5" y="-24.5" width="5.7" height="6.5" fill="#2e2e2e"/></g>
  <g class="f" transform="matrix(4.872 -0.596 0 4.24 250.312 364.714)" stroke="#111">
    <rect x="29" y="-24.5" width="20" height="6.5" fill="#3a3a3a"/>
    <circle cx="33.6" cy="-21.25" r="2.3" fill="#1d1d1d" stroke="#9a9a9a"/><circle cx="33.6" cy="-21.25" r="0.736" fill="#4a4a4a" stroke="none"/>
    <circle cx="44.4" cy="-21.25" r="2.3" fill="#1d1d1d" stroke="#9a9a9a"/><circle cx="44.4" cy="-21.25" r="0.736" fill="#4a4a4a" stroke="none"/>
    <circle cx="39" cy="-21.25" r="0.8" fill="#1d1d1d" stroke="#9a9a9a"/><circle cx="39" cy="-21.25" r="0.256" fill="#4a4a4a" stroke="none"/>
  </g>
  <g class="f" transform="matrix(4.872 -0.596 1.125 2.582 305.2 386.814)" stroke="#111"><rect x="29" y="-54.5" width="20" height="5.7" fill="#4d4d4d"/></g>

  <!-- front left speaker -->
  <g class="f" transform="matrix(1.125 2.582 0 4.24 217.507 501.429)" stroke="#111"><rect x="-60" y="-38" width="10" height="38" fill="#2e2e2e"/></g>
  <g class="f" transform="matrix(4.872 -0.596 0 4.24 248.962 361.616)" stroke="#111">
    <rect x="-18" y="-38" width="8" height="38" fill="#3a3a3a"/>
    <circle cx="-14" cy="-34.5" r="0.8" fill="#1d1d1d" stroke="#9a9a9a"/><circle cx="-14" cy="-34.5" r="0.256" fill="#4a4a4a" stroke="none"/>
    <circle cx="-14" cy="-30" r="2.5" fill="#1d1d1d" stroke="#9a9a9a"/><circle cx="-14" cy="-30" r="0.8" fill="#4a4a4a" stroke="none"/>
    <circle cx="-14" cy="-23.5" r="2.5" fill="#1d1d1d" stroke="#9a9a9a"/><circle cx="-14" cy="-23.5" r="0.8" fill="#4a4a4a" stroke="none"/>
    <ellipse cx="-14" cy="-6" rx="1.4" ry="0.8" fill="#161616" stroke="none"/>
  </g>
  <g class="f" transform="matrix(4.872 -0.596 1.125 2.582 305.2 329.571)" stroke="#111"><rect x="-18" y="-60" width="8" height="10" fill="#4d4d4d"/></g>

  <!-- rug pad under the stage, 5 x 8 ft -->
  <g class="f" transform="matrix(4.872 -0.596 1.125 2.582 305.2 490.17)" stroke="#a39e95"><rect x="-9" y="-7.062" width="96" height="60" fill="#d2cdc4"/></g>

  <!-- mat cables: out through the notches, along the front, under the cover to the Pi -->
  <polyline points="399.639,477.257 394.015,464.348 547.478,445.573 540.167,429.322" fill="none" stroke="#222" stroke-width="2" stroke-linejoin="round" stroke-linecap="round"/>
  <polyline points="589.641,454.011 584.017,441.103 549.914,445.275 542.603,429.024" fill="none" stroke="#222" stroke-width="2" stroke-linejoin="round" stroke-linecap="round"/>

  <!-- floor cable cover -->
  <g class="f" transform="matrix(1.125 2.582 0 4.24 546.357 461.197)" stroke="#7c7c7c"><rect x="-47.6" y="-0.55" width="46.1" height="0.55" fill="#a2a2a2"/></g>
  <g class="f" transform="matrix(4.872 -0.596 0 4.24 303.513 486.827)" stroke="#7c7c7c"><rect x="49.5" y="-0.55" width="3" height="0.55" fill="#b4b4b4"/></g>
  <g class="f" transform="matrix(4.872 -0.596 1.125 2.582 305.2 488.368)" stroke="#7c7c7c"><rect x="49.5" y="-47.6" width="3" height="46.1" fill="#c9c9c9"/></g>
  <polyline points="500.126,336.142 499.789,335.368 499.789,326.039 500.257,320.87" fill="none" stroke="#222" stroke-width="2" stroke-linejoin="round" stroke-linecap="round"/>
  <polyline points="504.998,335.546 504.66,334.772 504.66,325.443 505.616,320.215" fill="none" stroke="#222" stroke-width="2" stroke-linejoin="round" stroke-linecap="round"/>

  <!-- the stage: two modules, 3/4 in base + 1/2 in border -->
  <g class="f" transform="matrix(1.125 2.582 0 4.24 305.2 490.7)" stroke="#7a5c2e">
    <rect x="0" y="-1.375" width="45.875" height="0.5" fill="#c2a36d"/>
    <rect x="0" y="-0.875" width="45.875" height="0.75" fill="#b3935c"/>
  </g>
  <g class="f" transform="matrix(4.872 -0.596 0 4.24 356.798 609.135)" stroke="#7a5c2e">
    <rect x="0" y="-1.375" width="78" height="0.5" fill="#cdb07c"/>
    <rect x="0" y="-0.875" width="78" height="0.75" fill="#c0a26c"/>
    <line x1="39" y1="-1.375" x2="39" y2="-0.125"/>
  </g>
  <g class="f" transform="matrix(4.872 -0.596 1.125 2.582 305.2 484.87)" stroke="#7a5c2e">
    <rect x="0" y="0" width="39" height="45.875" fill="#d9bf8f"/>
    <rect x="39" y="0" width="39" height="45.875" fill="#d9bf8f"/>
    <rect x="3" y="3" width="33" height="36.875" fill="#8a8a8a"/>
    <use href="#mat" x="3.125" y="3.125"/>
    <rect x="19.125" y="0" width="0.75" height="3" fill="#a88a55"/>
    <rect x="42" y="3" width="33" height="36.875" fill="#8a8a8a"/>
    <use href="#mat" x="42.125" y="3.125"/>
    <rect x="58.125" y="0" width="0.75" height="3" fill="#a88a55"/>
    <rect x="37" y="1" width="4" height="1" fill="#a9a9a9" stroke="#666"/>
    <rect x="37" y="44.2" width="4" height="1" fill="#a9a9a9" stroke="#666"/>
    <text x="19.5" y="44.4" font-size="3.6" font-weight="bold" text-anchor="middle" fill="#5a4320" stroke="none">P1</text>
    <text x="58.5" y="44.4" font-size="3.6" font-weight="bold" text-anchor="middle" fill="#5a4320" stroke="none">P2</text>
  </g>

  <!-- cable from each mat out through its notch -->
  <polyline points="403.913,481.767 400.201,474.519" fill="none" stroke="#222" stroke-width="2" stroke-linejoin="round" stroke-linecap="round"/>
  <polyline points="593.915,458.522 590.203,451.274" fill="none" stroke="#222" stroke-width="2" stroke-linejoin="round" stroke-linecap="round"/>

  <!-- safety bar, P2 -->
  <g class="f" transform="matrix(4.872 -0.596 1.125 2.582 305.2 483.174)" stroke="#1a1a1a">
    <circle cx="42.75" cy="42.875" r="1.75" fill="#4a4a4a"/>
    <circle cx="74.25" cy="42.875" r="1.75" fill="#4a4a4a"/>
  </g>
  <line x1="561.695" y1="568.383" x2="561.695" y2="438.632" stroke="#3a3a3a" stroke-width="5.25" stroke-linecap="butt"/>
  <line x1="560.54" y1="568.383" x2="560.54" y2="438.632" stroke="#8a8a8a" stroke-width="1.155" stroke-linecap="butt"/>
  <line x1="715.159" y1="549.608" x2="715.159" y2="419.857" stroke="#3a3a3a" stroke-width="5.25" stroke-linecap="butt"/>
  <line x1="714.004" y1="549.608" x2="714.004" y2="419.857" stroke="#8a8a8a" stroke-width="1.155" stroke-linecap="butt"/>
  <line x1="561.695" y1="438.632" x2="715.159" y2="419.857" stroke="#3a3a3a" stroke-width="5.25" stroke-linecap="butt"/>
  <line x1="561.695" y1="437.477" x2="715.159" y2="418.702" stroke="#8a8a8a" stroke-width="1.155" stroke-linecap="butt"/>
  <line x1="594.58" y1="434.609" x2="682.274" y2="423.88" stroke="#161616" stroke-width="6.195" stroke-linecap="butt"/>
  <circle cx="561.695" cy="438.632" r="3.465" fill="#3a3a3a"/>
  <circle cx="715.159" cy="419.857" r="3.465" fill="#3a3a3a"/>

  <!-- surround left speaker on a stand -->
  <g class="f" transform="matrix(1.125 2.582 0 4.24 156.609 508.879)" stroke="#111"><rect x="31.5" y="-0.6" width="9" height="0.6" fill="#2c2c2c"/></g>
  <g class="f" transform="matrix(4.872 -0.596 0 4.24 350.753 595.258)" stroke="#111"><rect x="-30.5" y="-0.6" width="9" height="0.6" fill="#383838"/></g>
  <g class="f" transform="matrix(4.872 -0.596 1.125 2.582 305.2 488.156)" stroke="#111"><rect x="-30.5" y="31.5" width="9" height="9" fill="#4a4a4a"/></g>
  <line x1="219.023" y1="596.593" x2="219.023" y2="456.665" stroke="#333" stroke-width="6" stroke-linecap="butt"/>
  <line x1="217.523" y1="596.593" x2="217.523" y2="456.665" stroke="#7a7a7a" stroke-width="1.2" stroke-linecap="butt"/>
  <g class="f" transform="matrix(1.125 2.582 0 4.24 163.916 507.985)" stroke="#111"><rect x="33" y="-34.1" width="6" height="0.5" fill="#2c2c2c"/></g>
  <g class="f" transform="matrix(4.872 -0.596 0 4.24 349.065 591.386)" stroke="#111"><rect x="-29" y="-34.1" width="6" height="0.5" fill="#383838"/></g>
  <g class="f" transform="matrix(4.872 -0.596 1.125 2.582 305.2 346.108)" stroke="#111"><rect x="-29" y="33" width="6" height="6" fill="#4a4a4a"/></g>
  <g class="f" transform="matrix(1.125 2.582 0 4.24 159.044 508.581)" stroke="#111"><rect x="32.75" y="-44.6" width="6.5" height="10.5" fill="#2e2e2e"/></g>
  <g class="f" transform="matrix(4.872 -0.596 0 4.24 349.347 592.031)" stroke="#111"><rect x="-30" y="-44.6" width="8" height="10.5" fill="#3a3a3a"/></g>
  <g class="f" transform="matrix(4.872 -0.596 1.125 2.582 305.2 301.585)" stroke="#111"><rect x="-30" y="32.75" width="8" height="6.5" fill="#4d4d4d"/></g>

  <!-- surround right speaker on a stand -->
  <g class="f" transform="matrix(1.125 2.582 0 4.24 789.949 431.395)" stroke="#111"><rect x="31.5" y="-0.6" width="9" height="0.6" fill="#2c2c2c"/></g>
  <g class="f" transform="matrix(4.872 -0.596 0 4.24 350.753 595.258)" stroke="#111"><rect x="99.5" y="-0.6" width="9" height="0.6" fill="#383838"/></g>
  <g class="f" transform="matrix(4.872 -0.596 1.125 2.582 305.2 488.156)" stroke="#111"><rect x="99.5" y="31.5" width="9" height="9" fill="#4a4a4a"/></g>
  <line x1="852.364" y1="519.11" x2="852.364" y2="379.182" stroke="#333" stroke-width="6" stroke-linecap="butt"/>
  <line x1="850.864" y1="519.11" x2="850.864" y2="379.182" stroke="#7a7a7a" stroke-width="1.2" stroke-linecap="butt"/>
  <g class="f" transform="matrix(1.125 2.582 0 4.24 797.257 430.501)" stroke="#111"><rect x="33" y="-34.1" width="6" height="0.5" fill="#2c2c2c"/></g>
  <g class="f" transform="matrix(4.872 -0.596 0 4.24 349.065 591.386)" stroke="#111"><rect x="101" y="-34.1" width="6" height="0.5" fill="#383838"/></g>
  <g class="f" transform="matrix(4.872 -0.596 1.125 2.582 305.2 346.108)" stroke="#111"><rect x="101" y="33" width="6" height="6" fill="#4a4a4a"/></g>
  <g class="f" transform="matrix(1.125 2.582 0 4.24 792.385 431.097)" stroke="#111">
    <rect x="32.75" y="-44.6" width="6.5" height="10.5" fill="#2e2e2e"/>
    <circle cx="36" cy="-42.2" r="0.75" fill="#1d1d1d" stroke="#9a9a9a"/><circle cx="36" cy="-42.2" r="0.24" fill="#4a4a4a" stroke="none"/>
    <circle cx="36" cy="-38.2" r="2.2" fill="#1d1d1d" stroke="#9a9a9a"/><circle cx="36" cy="-38.2" r="0.704" fill="#4a4a4a" stroke="none"/>
  </g>
  <g class="f" transform="matrix(4.872 -0.596 0 4.24 349.347 592.031)" stroke="#111"><rect x="100" y="-44.6" width="8" height="10.5" fill="#3a3a3a"/></g>
  <g class="f" transform="matrix(4.872 -0.596 1.125 2.582 305.2 301.585)" stroke="#111"><rect x="100" y="32.75" width="8" height="6.5" fill="#4d4d4d"/></g>

  <!-- labels -->
  <polyline points="303,94 311.824,120.159" fill="none" stroke="#555" stroke-width="1" stroke-linejoin="round" stroke-linecap="round"/>
  <circle cx="311.824" cy="120.159" r="2.2" fill="#555"/>
  <text x="298" y="98" text-anchor="end" font-weight="bold">TV, in Game Mode</text>
  <polyline points="145,246 155.645,249.189" fill="none" stroke="#555" stroke-width="1" stroke-linejoin="round" stroke-linecap="round"/>
  <circle cx="155.645" cy="249.189" r="2.2" fill="#555"/>
  <text x="140" y="250" text-anchor="end" font-weight="bold">Front left speaker</text>
  <polyline points="580,201 485.996,231.012" fill="none" stroke="#555" stroke-width="1" stroke-linejoin="round" stroke-linecap="round"/>
  <circle cx="485.996" cy="231.012" r="2.2" fill="#555"/>
  <text x="607" y="196" text-anchor="middle" font-weight="bold">Centre speaker</text>
  <polyline points="735,128 716.66,168.709" fill="none" stroke="#555" stroke-width="1" stroke-linejoin="round" stroke-linecap="round"/>
  <circle cx="716.66" cy="168.709" r="2.2" fill="#555"/>
  <text x="740" y="132" font-weight="bold">Front right speaker</text>
  <polyline points="820,238 800.606,258.684" fill="none" stroke="#555" stroke-width="1" stroke-linejoin="round" stroke-linecap="round"/>
  <circle cx="800.606" cy="258.684" r="2.2" fill="#555"/>
  <text x="825" y="242" font-weight="bold">Subwoofer</text>
  <polyline points="332,389 410.858,325.447" fill="none" stroke="#555" stroke-width="1" stroke-linejoin="round" stroke-linecap="round"/>
  <circle cx="410.858" cy="325.447" r="2.2" fill="#555"/>
  <text x="310" y="402" font-weight="bold">AV receiver</text>
  <text x="310" y="417" font-size="12" fill="#555">upmixes the Pi's stereo to 5.1</text>
  <polyline points="603,348 502.449,319.754" fill="none" stroke="#555" stroke-width="1" stroke-linejoin="round" stroke-linecap="round"/>
  <circle cx="502.449" cy="319.754" r="2.2" fill="#555"/>
  <text x="608" y="352" font-weight="bold">Raspberry Pi 4 running OutFox</text>
  <polyline points="603,390 533.978,395.116" fill="none" stroke="#555" stroke-width="1" stroke-linejoin="round" stroke-linecap="round"/>
  <circle cx="533.978" cy="395.116" r="2.2" fill="#555"/>
  <text x="608" y="394" font-weight="bold">Mat cables (USB)</text>
  <text x="608" y="409" font-size="12" fill="#555">under a floor cable cover</text>
  <polyline points="190,428 199.536,431.912" fill="none" stroke="#555" stroke-width="1" stroke-linejoin="round" stroke-linecap="round"/>
  <circle cx="199.536" cy="431.912" r="2.2" fill="#555"/>
  <text x="185" y="432" text-anchor="end" font-weight="bold">Surround left</text>
  <polyline points="880,342 871.851,341.179" fill="none" stroke="#555" stroke-width="1" stroke-linejoin="round" stroke-linecap="round"/>
  <circle cx="871.851" cy="341.179" r="2.2" fill="#555"/>
  <text x="885" y="346" font-weight="bold">Surround right</text>
  <polyline points="240,656 377.917,557.552" fill="none" stroke="#555" stroke-width="1" stroke-linejoin="round" stroke-linecap="round"/>
  <circle cx="377.917" cy="557.552" r="2.2" fill="#555"/>
  <text x="150" y="670" font-weight="bold">USB dance mats in recessed bays</text>
  <text x="150" y="685" font-size="12" fill="#555">P1 on the left, P2 on the right</text>
  <polyline points="485,656 502.954,587.862" fill="none" stroke="#555" stroke-width="1" stroke-linejoin="round" stroke-linecap="round"/>
  <circle cx="502.954" cy="587.862" r="2.2" fill="#555"/>
  <text x="420" y="670" font-weight="bold">Stage: two plywood modules</text>
  <text x="420" y="685" font-size="12" fill="#555">78 × 45-7/8 in (1976 × 1164 mm)</text>
  <text x="420" y="700" font-size="12" fill="#555">players step on from this side</text>
  <polyline points="740,656 715.159,489.291" fill="none" stroke="#555" stroke-width="1" stroke-linejoin="round" stroke-linecap="round"/>
  <circle cx="715.159" cy="489.291" r="2.2" fill="#555"/>
  <text x="700" y="670" font-weight="bold">Optional safety bar (on P2 here)</text>
  <text x="700" y="685" font-size="12" fill="#555">about 31 in (790 mm) above the mat</text>
  <polyline points="805,602 759.053,554.294" fill="none" stroke="#555" stroke-width="1" stroke-linejoin="round" stroke-linecap="round"/>
  <circle cx="759.053" cy="554.294" r="2.2" fill="#555"/>
  <text x="810" y="606" font-weight="bold">Rug pad under the stage</text>

  <text x="500" y="30" text-anchor="middle" font-size="16" font-weight="bold">How it looks assembled (an example room layout)</text>
  <text x="20" y="742" font-size="11.5" fill="#555">The stage and mats are drawn to scale for the reference mat (see the plans). The TV, speakers and furniture are just one example layout.</text>
</svg>
